<svg id="Layer_1" data-name="Layer 1" xmlns="http://www.w3.org/2000/svg" viewBox="0 0 330.56 438.38"><defs><style>.cls-1,.cls-5{fill:#fff;}.cls-1,.cls-2,.cls-3,.cls-6{stroke:#010101;stroke-linecap:round;stroke-linejoin:round;stroke-width:6px;}.cls-2{fill:none;}.cls-3{fill:#68a643;}.cls-4{fill:#010101;}.cls-6{fill:#ad967b;}</style></defs><title>golang</title><path class="cls-1" d="M133.3,246.27c-10.05,1.38-21.76,4.24-27.85,7.88-5.51,3.29-4.79,13-.87,17.78,4.14,5.06,9,4.79,14.86,2.14,3.85-1.74,8.48-5.61,13.27-10q.18-5.67.41-11.34Q133.26,249.41,133.3,246.27Z" transform="translate(-98.48 -30.81)"/><path class="cls-1" d="M422.07,250.83c-5.63-3.36-16.07-6.06-25.56-7.54.24,5,.56,10.56,1,16.79.08,1.13.16,2.24.24,3.34,3.73,3.23,7.27,6,10.32,7.33,5.87,2.65,10.72,2.92,14.86-2.14C426.86,263.81,427.59,254.12,422.07,250.83Z" transform="translate(-98.48 -30.81)"/><path class="cls-1" d="M140.68,448.27c-7.4,12.92,11.95,23.57,22,14.61,8.19-7.32,14.66-13.53,28.74-15.56A116.55,116.55,0,0,1,163,431.17C153.18,435,145.2,440.37,140.68,448.27Z" transform="translate(-98.48 -30.81)"/><path class="cls-1" d="M365,459.33c8.29,10.54,28.89,1,22.87-12.63a42.56,42.56,0,0,0-20.79-20.8,105.25,105.25,0,0,1-22,15.39C354.58,445.73,359.25,452,365,459.33Z" transform="translate(-98.48 -30.81)"/><path class="cls-2" d="M103,269.42c2.5-1.77,4.27-3.68,8.85-6" transform="translate(-98.48 -30.81)"/><path class="cls-2" d="M424.51,266.1c-2.5-1.77-4.27-3.68-8.85-6" transform="translate(-98.48 -30.81)"/><path class="cls-2" d="M145,462.82a26.43,26.43,0,0,1,8.79-15.1" transform="translate(-98.48 -30.81)"/><path class="cls-2" d="M381.75,461.63c0-3.71-1-11.26-6.66-16.37" transform="translate(-98.48 -30.81)"/><path class="cls-3" d="M130.08,86.54a9.39,9.39,0,0,1,9.47-9.31,9.5,9.5,0,0,1,7.51,3.66,77.11,77.11,0,0,1,15-17.5c-2.84-2.7-7.45-4.67-14.7-5.63-23.33-3.08-35.25,8.24-38,23.4-2.63,14.63,5.39,30.35,23.29,34.44a135.9,135.9,0,0,1,6.72-19.76A9.38,9.38,0,0,1,130.08,86.54Z" transform="translate(-98.48 -30.81)"/><path class="cls-4" d="M139.55,77.23a9.3,9.3,0,1,0-.18,18.61,124.46,124.46,0,0,1,6.09-12.27c.52-.91,1.05-1.8,1.6-2.67A9.5,9.5,0,0,0,139.55,77.23Z" transform="translate(-98.48 -30.81)"/><path class="cls-3" d="M410.25,75.19c-2.72-15.17-14.64-26.48-38-23.4-8.09,1.07-12.9,3.4-15.62,6.6a104.52,104.52,0,0,1,14.48,15.14l.64.84a9.49,9.49,0,0,1,7.59-3.77A9.3,9.3,0,0,1,381.26,89a103.3,103.3,0,0,1,7.9,20C405.52,104.21,412.77,89.2,410.25,75.19Z" transform="translate(-98.48 -30.81)"/><path class="cls-4" d="M388.84,79.9a9.39,9.39,0,0,0-9.47-9.31,9.49,9.49,0,0,0-7.59,3.77A99.82,99.82,0,0,1,381.26,89,9.35,9.35,0,0,0,388.84,79.9Z" transform="translate(-98.48 -30.81)"/><path class="cls-3" d="M371.78,74.36l-.64-.84a104.52,104.52,0,0,0-14.48-15.14C334.27,39.4,305.13,32.72,263,34,226.38,35,187.47,41.26,162,63.39a77.11,77.11,0,0,0-15,17.5c-.55.88-1.08,1.76-1.6,2.67a124.46,124.46,0,0,0-6.09,12.27,135.9,135.9,0,0,0-6.72,19.76c-3.58,13.85-5.61,29.9-5.61,48.88,0,33.29,6.66,49.81,6.26,81.79q0,3.15-.17,6.51-.23,5.66-.41,11.34c-1.24,39.18-.8,78.09-1.13,104.78-.3,24.49,11,46.26,31.44,62.28a116.55,116.55,0,0,0,28.36,16.13c18.87,7.63,41.64,11.94,67.5,11.94,37.76,0,65.71-7.12,86.16-18a105.25,105.25,0,0,0,22-15.39,90.27,90.27,0,0,0,27.05-45.66c8.62-35.79,7.49-62,3.63-116.83-.08-1.1-.16-2.21-.24-3.34-.44-6.24-.77-11.76-1-16.79-1.3-27.55,0-40.07-.36-71.51-.35-26.76-2.4-46.59-7-62.74a103.3,103.3,0,0,0-7.9-20A99.82,99.82,0,0,0,371.78,74.36Z" transform="translate(-98.48 -30.81)"/><ellipse class="cls-1" cx="109.02" cy="68.35" rx="41.25" ry="39.17"/><ellipse class="cls-4" cx="101.66" cy="71.82" rx="14.2" ry="13.94"/><ellipse class="cls-5" cx="105.72" cy="79.64" rx="4.06" ry="3.98"/><ellipse class="cls-1" cx="212.48" cy="63.71" rx="41.25" ry="39.17"/><ellipse class="cls-4" cx="226.44" cy="49.35" rx="14.2" ry="13.94"/><ellipse class="cls-5" cx="230.49" cy="49.35" rx="4.06" ry="3.98"/><path class="cls-1" d="M260.73,157.25c-8.1.14-9.32,3.69-16.29,4.91-.25,4.22-.56,10-.87,16.89-.68,14.83,18.48,11.51,18.48,2.66V157.27C261.63,157.25,261.2,157.25,260.73,157.25Z" transform="translate(-98.48 -30.81)"/><path class="cls-6" d="M290.56,142.47c-3.27-3.46-7.15-5.34-12.34-6.25-2.75,4-9.61,6.76-17.64,6.76-7.72,0-14.36-2.6-17.31-6.31-5.55,1-9.58,3.09-12.89,6.83-6.48,7.35-3.33,18.36,5.38,19a35.93,35.93,0,0,0,8.67-.29c7-1.22,8.19-4.77,16.29-4.91.46,0,.9,0,1.32,0,7.73.27,8.81,4.16,17.59,4.56a42.51,42.51,0,0,0,6.23-.23C294.55,160.7,297.3,149.59,290.56,142.47Z" transform="translate(-98.48 -30.81)"/><path class="cls-4" d="M260.59,143c8,0,14.89-2.81,17.64-6.76a6.72,6.72,0,0,0,1.29-3.86c0-5.87-8.48-10.62-18.93-10.62s-18.93,4.76-18.93,10.62a6.91,6.91,0,0,0,1.63,4.31C246.23,140.39,252.86,143,260.59,143Z" transform="translate(-98.48 -30.81)"/></svg>