<svg id="Layer_1" data-name="Layer 1" xmlns="http://www.w3.org/2000/svg" viewBox="0 0 342.53 48.12"><defs><style>.cls-1{font-size:34.49px;fill:#fff;font-family:Roboto-Regular, Roboto;}.cls-2{letter-spacing:-0.01em;}.cls-3{fill:#212121;}.cls-4{fill:#e46625;}.cls-5{fill:#e3b22a;}.cls-6{fill:#2460aa;}.cls-7{fill:#2b3379;}.cls-8{fill:#cb3828;}</style></defs><title>logo</title><text class="cls-1" transform="translate(47.75 38.78) scale(1.25 1)">BenGabba<tspan class="cls-2" x="158.5" y="0">r</tspan><tspan x="169.85" y="0">d.us</tspan></text><polygon class="cls-3" points="23.87 0 31.25 15.54 47.75 18.03 35.81 30.12 38.63 47.2 23.87 39.13 9.12 47.2 11.94 30.12 0 18.03 16.5 15.54 23.87 0"/><polygon class="cls-4" points="23.87 37.03 11.5 43.79 23.87 25.77 23.87 37.03"/><polygon class="cls-5" points="13.86 29.47 3.85 19.33 23.87 25.77 13.86 29.47"/><polyline class="cls-6" points="23.87 4.21 17.69 17.24 23.87 25.77 23.87 4.21"/><polygon class="cls-7" points="43.89 19.33 30.06 17.24 23.87 25.77 43.89 19.33"/><polygon class="cls-8" points="33.88 29.47 36.25 43.79 23.87 25.77 33.88 29.47"/></svg>